<svg xmlns="http://www.w3.org/2000/svg" viewBox="0 0 10025.343 1500">
  <g fill="#FFFFFF">
    <path d="M4228.717,0H2397.356L1992.484,1500H3823.845ZM3750.5,366.141,3543.142,1134.39H2470.078L2677.44,366.141Z"/>
    <path d="M0,1500H379.244L653.64,482.262,1451.977,1500h379.386L2236.235,0H1856.849L1582.177,1017.622,784.116,0H404.872Z"/>
    <path d="M4389.84,0,3984.968,1500h379.244l274.71-1017.334,399.029,508.691L5712.07,482.265,5436.943,1500H5816.4L6221.2,0H5841.815L5168.158,508.869,4769.082,0Z"/>
    <path d="M7808.884,1500H7429.64L7735.686,366.14H7478.655L5977.45,1500,6107.71,1017.4,7454.731,0h758.882Z"/>
    <path d="M9801.225,1500H7969.864L8374.736,0H9509.469l515.871,657.647ZM8448.052,1133.858H9521.091l94.495-350.093L9287.991,366.141l-632.657-.531Z"/>
  </g>
</svg>
